<svg width="40" height="40" viewBox="0 0 40 40" fill="none" xmlns="http://www.w3.org/2000/svg">
<path d="M24.0664 31.75L26.5997 34.2834L31.6664 29.2167" stroke="#00AC4F" stroke-width="2.5" stroke-linecap="round" stroke-linejoin="round"/>
<path d="M20.2673 18.117C20.1006 18.1003 19.9006 18.1003 19.7173 18.117C15.7506 17.9837 12.6006 14.7337 12.6006 10.7337C12.584 6.65035 15.9006 3.33368 19.984 3.33368C24.0673 3.33368 27.384 6.65035 27.384 10.7337C27.384 14.7337 24.2173 17.9837 20.2673 18.117Z" stroke="#00AC4F" stroke-width="2.5" stroke-linecap="round" stroke-linejoin="round"/>
<path d="M19.9834 36.3498C16.9501 36.3498 13.9334 35.5832 11.6334 34.0498C7.60007 31.3498 7.60007 26.9498 11.6334 24.2665C16.2167 21.1998 23.7334 21.1998 28.3167 24.2665" stroke="#00AC4F" stroke-width="2.5" stroke-linecap="round" stroke-linejoin="round"/>
</svg>
