<svg width="42" height="42" viewBox="0 0 42 42" fill="none" xmlns="http://www.w3.org/2000/svg">
<path d="M16.0305 19.0229C15.8555 19.0054 15.6455 19.0054 15.453 19.0229C11.288 18.8829 7.98047 15.4704 7.98047 11.2704C7.98047 6.98287 11.4455 3.50037 15.7505 3.50037C20.038 3.50037 23.5205 6.98287 23.5205 11.2704C23.503 15.4704 20.1955 18.8829 16.0305 19.0229Z" stroke="#00AC4F" stroke-width="2.625" stroke-linecap="round" stroke-linejoin="round"/>
<path d="M28.7168 6.99963C32.1118 6.99963 34.8418 9.74713 34.8418 13.1246C34.8418 16.4321 32.2168 19.1271 28.9443 19.2496C28.8043 19.2321 28.6468 19.2321 28.4893 19.2496" stroke="#00AC4F" stroke-width="2.625" stroke-linecap="round" stroke-linejoin="round"/>
<path d="M7.28074 25.4796C3.04574 28.3146 3.04574 32.9346 7.28074 35.7521C12.0932 38.9721 19.9857 38.9721 24.7982 35.7521C29.0332 32.9171 29.0332 28.2971 24.7982 25.4796C20.0032 22.2771 12.1107 22.2771 7.28074 25.4796Z" stroke="#00AC4F" stroke-width="2.625" stroke-linecap="round" stroke-linejoin="round"/>
<path d="M32.0947 35.0004C33.3547 34.7379 34.5447 34.2304 35.5247 33.4779C38.2547 31.4304 38.2547 28.0529 35.5247 26.0054C34.5622 25.2704 33.3897 24.7804 32.1472 24.5004" stroke="#00AC4F" stroke-width="2.625" stroke-linecap="round" stroke-linejoin="round"/>
</svg>
