<?xml version="1.0" standalone="no"?>
<!DOCTYPE svg PUBLIC "-//W3C//DTD SVG 20010904//EN"
 "http://www.w3.org/TR/2001/REC-SVG-20010904/DTD/svg10.dtd">
<svg version="1.0" xmlns="http://www.w3.org/2000/svg"
 width="729.000000pt" height="547.000000pt" viewBox="0 0 729.000000 547.000000"
 preserveAspectRatio="xMidYMid meet">
<metadata>
Created by potrace 1.16, written by Peter Selinger 2001-2019
</metadata>
<g transform="translate(0.000000,547.000000) scale(0.100000,-0.100000)"
fill="#4A90E2" stroke="none">
<path d="M1108 4361 c-390 -390 -708 -713 -708 -717 0 -5 318 -327 708 -717
l707 -707 1215 0 1215 0 708 708 c389 389 707 712 707 717 0 6 -71 81 -158
168 l-157 157 -1223 0 c-871 0 -1222 3 -1222 11 0 6 98 108 218 227 l217 217
1095 -3 1096 -2 387 -384 c213 -211 387 -387 387 -391 0 -13 -2637 -2645
-2650 -2645 -7 0 -183 171 -392 380 l-380 380 -301 0 -302 0 688 -687 687
-687 1625 1625 c894 894 1625 1629 1625 1633 0 5 -319 327 -708 718 l-709 709
-1214 0 -1214 0 -708 -708 c-389 -389 -707 -712 -707 -717 0 -6 71 -81 158
-168 l157 -157 1223 0 c921 0 1222 -3 1222 -12 0 -6 -96 -107 -214 -225 l-213
-213 -1102 0 -1102 0 -386 385 c-349 348 -384 386 -372 402 8 10 328 331 711
715 l698 698 -303 -1 -302 0 -707 -708z"/>
</g>
</svg>